# xmcd
#
# Track frame offsets:
#	150
#	19442
#	33504
#	46804
#	61029
#	74303
#	86563
#	98113
#	121273
#	133048
#	148345
#	159933
#	173922
#	187669
#
# Disc length: 2646 seconds
#
# Revision: 0
# Processed by: cddbd v1.5.2PL0 Copyright (c) Steve Scherf et al.
# Submitted via: EasyCDDAExtractor 16.0.6.1
#
DISCID=b80a540e
DTITLE=Peao Dourado e Mulato - Sertanejo Sofrido  vol 2
DYEAR=1900
DGENRE=sertanejo moda
TTITLE0=chega de maracutaia
TTITLE1=cabloclinho butantã
TTITLE2=sertanejo sofrido
TTITLE3=minissaia
TTITLE4=gostosa prisao
TTITLE5=revanche itailiano
TTITLE6=nao foi pra mim
TTITLE7=ceu no chao
TTITLE8=preservaçao
TTITLE9=pedido a mae iemanja
TTITLE10=sertanejo feliz
TTITLE11=comparacao
TTITLE12=derradeira despedida
TTITLE13=vergonha ja foi pro espaço
EXTD=
EXTT0=
EXTT1=
EXTT2=
EXTT3=
EXTT4=
EXTT5=
EXTT6=
EXTT7=
EXTT8=
EXTT9=
EXTT10=
EXTT11=
EXTT12=
EXTT13=
PLAYORDER=
